# xmcd
# Copyright (C) 1995-1998 Ti Kan
#
# Track frame offsets:
#       151
#       6925
#       23688
#       39502
#       49400
#       70423
#       85249
#       95831
#       117034
#       143575
#       159613
#       184673
#
# Disc length: 2714 seconds
#
# Revision: 0
# Processed by: cddbd v1.5.2PL0 Copyright (c) Steve Scherf et al.
# Submitted via: CD-Import v1.0
#
DISCID=9c0a980c
DTITLE=Wolvenhand - Mosaic
DYEAR=2006
DGENRE=
TTITLE0=Breathing Bull
TTITLE1=Winter Shaker
TTITLE2=Swedish Purse
TTITLE3=Twig
TTITLE4=Whistling Girl
TTITLE5=Elktooth
TTITLE6=Bible And Bird
TTITLE7=Dirty Blue
TTITLE8=Slota Prow Full Armour
TTITLE9=Truly Golden
TTITLE10=Deerskin Doll
TTITLE11=Little Raven
EXTD=
EXTT0=
EXTT1=
EXTT2=
EXTT3=
EXTT4=
EXTT5=
EXTT6=
EXTT7=
EXTT8=
EXTT9=
EXTT10=
EXTT11=
PLAYORDER=
